<?xml version="1.0" standalone="no"?>
<svg
  width="600"
  height="600"
  viewBox="0 0 600 600"
  xmlns="http://www.w3.org/2000/svg"
>
  <g transform="translate(300,300)">
    <path d="M162.4,-197.4C199.6,-162.3,211.6,-100.8,211.8,-45.4C212,10.1,200.4,59.5,177.9,106.7C155.4,153.8,122,198.6,77.4,216.6C32.7,234.6,-23.1,225.8,-68.4,202.9C-113.6,179.9,-148.2,142.7,-175,99.4C-201.9,56.2,-221.1,6.9,-214.2,-38.8C-207.3,-84.4,-174.4,-126.5,-134.3,-161.1C-94.3,-195.7,-47.1,-222.8,7.7,-232C62.6,-241.2,125.1,-232.5,162.4,-197.4Z" fill="#7b68ee" />
  </g>
</svg>
    