<?xml version="1.0" standalone="no"?>
<svg
  width="600"
  height="600"
  viewBox="0 0 600 600"
  xmlns="http://www.w3.org/2000/svg"
>
  <g transform="translate(300,300)">
    <path d="M156.1,-186.6C195.1,-153.2,214.7,-97.3,222.9,-40.8C231,15.6,227.7,72.6,198.9,107.6C170.1,142.7,115.8,155.9,63.2,176.2C10.6,196.4,-40.4,223.6,-87.9,217C-135.4,210.3,-179.4,169.6,-209.5,119.8C-239.6,70,-255.7,11,-243.6,-40.5C-231.6,-92,-191.3,-136,-146,-168.3C-100.7,-200.7,-50.4,-221.3,4.1,-226.2C58.5,-231,117,-220.1,156.1,-186.6Z" fill="#a468ee" />
  </g>
</svg>
    