<?xml version="1.0" standalone="no"?>
<svg
  width="600"
  height="600"
  viewBox="0 0 600 600"
  xmlns="http://www.w3.org/2000/svg"
>
  <g transform="translate(300,300)">
    <path d="M139.6,-164.7C170.8,-140.2,179,-86.6,190,-32.3C201,22,214.8,77,199.2,125.4C183.7,173.8,138.7,215.7,87.5,229.5C36.4,243.4,-21,229.3,-63.2,201.7C-105.3,174.1,-132.3,133.1,-158.8,90.2C-185.3,47.4,-211.3,2.8,-209.2,-41.7C-207.1,-86.1,-176.8,-130.4,-137.3,-153.4C-97.7,-176.4,-48.9,-178.2,2.7,-181.4C54.2,-184.6,108.4,-189.2,139.6,-164.7Z" fill="#7b68ee" />
  </g>
</svg>
    