<?xml version="1.0" standalone="no"?>
<svg
  width="600"
  height="600"
  viewBox="0 0 600 600"
  xmlns="http://www.w3.org/2000/svg"
>
  <g transform="translate(300,300)">
    <path d="M165.2,-191.6C207.9,-161.1,232,-103.1,229.6,-50.3C227.3,2.6,198.5,50.3,167.5,89.8C136.4,129.2,103.1,160.5,60,184.9C16.9,209.2,-36,226.8,-86.5,217.2C-136.9,207.7,-184.9,171.1,-206.9,123.9C-228.8,76.7,-224.7,18.9,-211.6,-34.2C-198.5,-87.2,-176.4,-135.5,-139.6,-167C-102.8,-198.6,-51.4,-213.3,4.9,-219.2C61.3,-225,122.6,-222.1,165.2,-191.6Z" fill="#7b68ee" />
  </g>
</svg>
    