<?xml version="1.0" standalone="no"?>
<svg
  width="600"
  height="600"
  viewBox="0 0 600 600"
  xmlns="http://www.w3.org/2000/svg"
>
  <g transform="translate(300,300)">
    <path d="M119.1,-145C153.7,-112.8,180.7,-74.7,195.9,-28.7C211,17.4,214.2,71.5,195,120C175.8,168.6,134.2,211.6,83,232C31.7,252.5,-29.3,250.3,-77.1,226.5C-124.9,202.7,-159.4,157.4,-193.3,107.4C-227.2,57.4,-260.3,2.8,-252,-44.4C-243.6,-91.7,-193.8,-131.6,-144.9,-161.4C-96,-191.1,-48,-210.5,-2.9,-207.1C42.2,-203.6,84.4,-177.3,119.1,-145Z" fill="#a468ee" />
  </g>
</svg>
    