<?xml version="1.0" standalone="no"?>
<svg
  width="600"
  height="600"
  viewBox="0 0 600 600"
  xmlns="http://www.w3.org/2000/svg"
>
  <g transform="translate(300,300)">
    <path d="M148,-173C187.5,-143.2,212.4,-92.5,228.5,-35.3C244.5,21.9,251.7,85.7,224.4,126.2C197,166.7,135.1,183.9,77.8,198C20.4,212.1,-32.4,223,-76.9,208.2C-121.4,193.3,-157.7,152.7,-191.1,105.3C-224.5,57.9,-255.1,3.8,-246.7,-43.5C-238.4,-90.8,-191.2,-131.2,-143.6,-159.6C-96,-188.1,-48,-204.5,3.1,-208.2C54.2,-211.9,108.4,-202.9,148,-173Z" fill="#a468ee" />
  </g>
</svg>
    