<svg id="Layer_2" data-name="Layer 2" 
    xmlns="http://www.w3.org/2000/svg" viewBox="200 400 800 800">
    <defs>
        <style>.cls-1{fill:#e2e2e2;}.cls-2{fill:#f3f3f3;}.cls-3{fill:#ce735a;}.cls-4{fill:#b7624b;}.cls-5{fill:#88b74b;}.cls-6{fill:#95cc5a;}.cls-7{fill:#7a4bb7;}.cls-8{fill:#c4644a;}.cls-9{fill:#35211b;}.cls-10{fill:#d3d3d3;}.cls-11,.cls-13,.cls-14,.cls-15,.cls-16{fill:none;}.cls-11{stroke:#d3d3d3;stroke-miterlimit:10;}.cls-11,.cls-14,.cls-15{stroke-width:3.69px;}.cls-12{fill:#7a4bb7;}.cls-13,.cls-14,.cls-16{stroke:#fed385;}.cls-13,.cls-14,.cls-15,.cls-16{stroke-linecap:round;stroke-linejoin:round;}.cls-13{stroke-width:3.84px;}.cls-15{stroke:#74d5de;}.cls-16{stroke-width:2.39px;}</style>
    </defs>
    
    <title>Artboard 1</title>
    <ellipse class="cls-3" cx="602.59" cy="679.96" rx="11.73" ry="5.25" transform="translate(-105.6 1249.11) rotate(-87.24)"/>
    <path class="cls-3" d="M590.19,739.68c-.2-1.94,4.32-42.23,7.92-55a16,16,0,0,1,6.71-.94l-.34,39.7-5,18.67Z"/>
    <polygon points="620.7 683.58 589.26 686.18 588.26 679.96 618.52 670.39 620.7 683.58"/>
    <rect class="cls-4" x="544.3" y="999.24" width="13.77" height="11.65"/>
    <rect class="cls-4" x="586.9" y="1001.06" width="13.77" height="11.65"/>
    <path class="cls-5" d="M542.87,805V999.88H559l18.54-104.26S580.09,839.22,542.87,805Z"/>
    <path class="cls-6" d="M596,801.16c.45,5.62,6.06,107.88,6.06,107.88v93.11l-16.55,1.77-10.64-99-32-99.92C547.71,802.34,583.16,797.33,596,801.16Z"/>
    <path class="cls-7" d="M566.51,715.47c31.79,0,33.3,80.83,29.52,85.69s-49,8.17-53.16,3.83S526.9,715.47,566.51,715.47Z"/>
    <ellipse class="cls-4" cx="607.86" cy="679.96" rx="11.73" ry="5.25" transform="translate(-100.59 1254.37) rotate(-87.24)"/>
    <polygon points="585.61 1010.89 585.61 1022.54 618.35 1022.54 618.35 1018.3 601.32 1010.89 585.61 1010.89"/>
    <polygon points="543.87 1009.05 543.87 1020.7 576.61 1020.7 576.61 1016.46 559.58 1009.05 543.87 1009.05"/>
    <rect x="585.55" y="681.34" width="3.86" height="3.86" transform="translate(-98.87 99.39) rotate(-8.92)"/>
    <path class="cls-3" d="M568.84,722.5c0,2.67-12.41,3-12.41,0V696h12.41Z"/>
    <ellipse class="cls-8" cx="568.46" cy="688.32" rx="13.03" ry="19.89"/>
    <path class="cls-9" d="M545.77,680.12c0-6.13,2.67-10,4.84-11.23,4.19-2.4,5.94-1.33,10.16-3.2,4.57-2,8.49-7.84,13.84-7.84,5,0,4.55,2.84,7.94,3.68,2,.49,13.36-2.12,13.36,5.23,0,11.32-12.57,12.24-15.48,13.69a37.43,37.43,0,0,0-1.52-3.83c-2.29,2.36-10.58,4-11.92,4.53-3.1,1.28-4.58,6.13-4.58,9.3s-2.87,3.18-3.59,3.18C552.19,693.63,545.77,689.38,545.77,680.12Z"/>
    <circle class="cls-8" cx="556.67" cy="691.67" r="4.33"/>
    <rect class="cls-10" x="512.81" y="718.34" width="25.14" height="84.61" rx="12.57" ry="12.57"/>
    <ellipse class="cls-11" cx="544.89" cy="751.24" rx="30.38" ry="32.89"/>
    <path class="cls-4" d="M576.84,736.83c2.53,0,15.29.53,20.48,2.4.4-2.53,2.66-38.77,6.51-50.91,1.47-1.62,7.45-1.43,7.45,0s8.51,60.88,0,67.93-37.37-2.4-38.56-3.33S576.84,736.83,576.84,736.83Z"/>
    <path class="cls-12" d="M549.66,734.69c2.82-11.48,28.36-1.93,30.67.69,2.77,3.14-2.18,20.84-6,21.66C568.1,758.39,546,749.58,549.66,734.69Z"/>
</svg>