<svg version="1.1" id="el_p7xSZvR-V" preserveAspectRatio="none" xmlns="http://www.w3.org/2000/svg" xmlns:xlink="http://www.w3.org/1999/xlink" x="0px" y="0px" width="900" height="600" viewBox="0 0 600 600" enable-background="new 0 0 800 600" xml:space="preserve"><style>@-webkit-keyframes kf_el_gw6hlZ05fMD_an_lMVMN3qSK{0%{-webkit-transform: translate(11px, 446.8999938964844px) rotate(2deg) translate(-11px, -446.8999938964844px);transform: translate(11px, 446.8999938964844px) rotate(2deg) translate(-11px, -446.8999938964844px);}16.67%{-webkit-transform: translate(11px, 446.8999938964844px) rotate(1deg) translate(-11px, -446.8999938964844px);transform: translate(11px, 446.8999938964844px) rotate(1deg) translate(-11px, -446.8999938964844px);}33.33%{-webkit-transform: translate(11px, 446.8999938964844px) rotate(1deg) translate(-11px, -446.8999938964844px);transform: translate(11px, 446.8999938964844px) rotate(1deg) translate(-11px, -446.8999938964844px);}50%{-webkit-transform: translate(11px, 446.8999938964844px) rotate(2deg) translate(-11px, -446.8999938964844px);transform: translate(11px, 446.8999938964844px) rotate(2deg) translate(-11px, -446.8999938964844px);}66.67%{-webkit-transform: translate(11px, 446.8999938964844px) rotate(1deg) translate(-11px, -446.8999938964844px);transform: translate(11px, 446.8999938964844px) rotate(1deg) translate(-11px, -446.8999938964844px);}83.33%{-webkit-transform: translate(11px, 446.8999938964844px) rotate(1deg) translate(-11px, -446.8999938964844px);transform: translate(11px, 446.8999938964844px) rotate(1deg) translate(-11px, -446.8999938964844px);}100%{-webkit-transform: translate(11px, 446.8999938964844px) rotate(2deg) translate(-11px, -446.8999938964844px);transform: translate(11px, 446.8999938964844px) rotate(2deg) translate(-11px, -446.8999938964844px);}}@keyframes kf_el_gw6hlZ05fMD_an_lMVMN3qSK{0%{-webkit-transform: translate(11px, 446.8999938964844px) rotate(2deg) translate(-11px, -446.8999938964844px);transform: translate(11px, 446.8999938964844px) rotate(2deg) translate(-11px, -446.8999938964844px);}16.67%{-webkit-transform: translate(11px, 446.8999938964844px) rotate(1deg) translate(-11px, -446.8999938964844px);transform: translate(11px, 446.8999938964844px) rotate(1deg) translate(-11px, -446.8999938964844px);}33.33%{-webkit-transform: translate(11px, 446.8999938964844px) rotate(1deg) translate(-11px, -446.8999938964844px);transform: translate(11px, 446.8999938964844px) rotate(1deg) translate(-11px, -446.8999938964844px);}50%{-webkit-transform: translate(11px, 446.8999938964844px) rotate(2deg) translate(-11px, -446.8999938964844px);transform: translate(11px, 446.8999938964844px) rotate(2deg) translate(-11px, -446.8999938964844px);}66.67%{-webkit-transform: translate(11px, 446.8999938964844px) rotate(1deg) translate(-11px, -446.8999938964844px);transform: translate(11px, 446.8999938964844px) rotate(1deg) translate(-11px, -446.8999938964844px);}83.33%{-webkit-transform: translate(11px, 446.8999938964844px) rotate(1deg) translate(-11px, -446.8999938964844px);transform: translate(11px, 446.8999938964844px) rotate(1deg) translate(-11px, -446.8999938964844px);}100%{-webkit-transform: translate(11px, 446.8999938964844px) rotate(2deg) translate(-11px, -446.8999938964844px);transform: translate(11px, 446.8999938964844px) rotate(2deg) translate(-11px, -446.8999938964844px);}}@-webkit-keyframes kf_el_IZI5iD7qGlQ_an_1xbDr_lMZ{0%{opacity: 1;}25%{opacity: 0.3;}50%{opacity: 1;}75%{opacity: 0.3;}100%{opacity: 1;}}@keyframes kf_el_IZI5iD7qGlQ_an_1xbDr_lMZ{0%{opacity: 1;}25%{opacity: 0.3;}50%{opacity: 1;}75%{opacity: 0.3;}100%{opacity: 1;}}@-webkit-keyframes kf_el_cGp1uaLMPxq_an_TItASdkg4{0%{-webkit-transform: translate(592.300048828125px, 52.29999923706055px) translate(-592.300048828125px, -52.29999923706055px) translate(-400px, -200px);transform: translate(592.300048828125px, 52.29999923706055px) translate(-592.300048828125px, -52.29999923706055px) translate(-400px, -200px);}33.33%{-webkit-transform: translate(592.300048828125px, 52.29999923706055px) translate(-592.300048828125px, -52.29999923706055px) translate(20px, 20px);transform: translate(592.300048828125px, 52.29999923706055px) translate(-592.300048828125px, -52.29999923706055px) translate(20px, 20px);}100%{-webkit-transform: translate(592.300048828125px, 52.29999923706055px) translate(-592.300048828125px, -52.29999923706055px) translate(20px, 20px);transform: translate(592.300048828125px, 52.29999923706055px) translate(-592.300048828125px, -52.29999923706055px) translate(20px, 20px);}}@keyframes kf_el_cGp1uaLMPxq_an_TItASdkg4{0%{-webkit-transform: translate(592.300048828125px, 52.29999923706055px) translate(-592.300048828125px, -52.29999923706055px) translate(-400px, -200px);transform: translate(592.300048828125px, 52.29999923706055px) translate(-592.300048828125px, -52.29999923706055px) translate(-400px, -200px);}33.33%{-webkit-transform: translate(592.300048828125px, 52.29999923706055px) translate(-592.300048828125px, -52.29999923706055px) translate(20px, 20px);transform: translate(592.300048828125px, 52.29999923706055px) translate(-592.300048828125px, -52.29999923706055px) translate(20px, 20px);}100%{-webkit-transform: translate(592.300048828125px, 52.29999923706055px) translate(-592.300048828125px, -52.29999923706055px) translate(20px, 20px);transform: translate(592.300048828125px, 52.29999923706055px) translate(-592.300048828125px, -52.29999923706055px) translate(20px, 20px);}}#el_p7xSZvR-V *{-webkit-animation-duration: 6s;animation-duration: 6s;-webkit-animation-iteration-count: infinite;animation-iteration-count: infinite;-webkit-animation-timing-function: cubic-bezier(0, 0, 1, 1);animation-timing-function: cubic-bezier(0, 0, 1, 1);}#el_QtZuMQfkpt{fill: url(#SVGID_1_);}#el_c8nKTgPM23{fill: url(#SVGID_2_);}#el_bSr_InoH43{fill: url(#SVGID_3_);}#el_PeJar6ExJo{fill: url(#SVGID_4_);}#el_Vk-PzIJwI9{fill: url(#SVGID_5_);}#el_0C8BebtymE{fill: url(#SVGID_6_);}#el_ofRXz0CmBJ{fill: url(#SVGID_7_);}#el_-ARbXu3xpQ{fill: url(#SVGID_8_);}#el_XI9sSAP20Q{fill: url(#SVGID_9_);}#el_W2HO70-D-i{fill: url(#SVGID_10_);}#el_i3WQ_ShlYA{fill: url(#SVGID_11_);}#el_vP2Wcqhulh{fill: url(#SVGID_12_);}#el_7pAxE6EhqLl{fill: url(#SVGID_13_);}#el_nuWA65uM4Fz{fill: url(#SVGID_14_);}#el_4RdtSCjdeG4{fill: url(#SVGID_15_);}#el_b0DfUCm8wK9{fill: url(#SVGID_16_);}#el_zVIHBAs1BYc{fill: url(#SVGID_17_);}#el_N3oUu1oag9F{fill: url(#SVGID_18_);}#el_z_jYIjxyeuw{fill: url(#SVGID_19_);}#el_rzYc4dxALLK{fill: url(#SVGID_20_);}#el_rZZpcTJn2LP{fill: url(#SVGID_21_);}#el_HPGvsh_Z5xt{fill: url(#SVGID_22_);}#el_rKDLaBxeIQ7{fill: url(#SVGID_23_);}#el_82ah-WJchmB{fill: url(#SVGID_24_);}#el_DVkH5LaUgtg{fill: url(#SVGID_25_);}#el_SPDArUhWai_{fill: url(#SVGID_26_);}#el_VyMDGnbQd13{fill: url(#SVGID_27_);}#el_nBhaeQtv2Qb{fill: url(#SVGID_28_);}#el_cGp1uaLMPxq{fill: url(#SVGID_29_);}#el_Xn3twFaPKdp{fill: #FFFFFF;}#el_021gZnjYQky{fill: #FFFFFF;}#el_AsSoA6EUf7Q{fill: #FFFFFF;}#el_Qjtq6wA2VW0{fill: #FFFFFF;}#el_kkEgkVeyJGS{fill: #FFFFFF;}#el_edITAOubeyJ{fill: #FFFFFF;}#el__BhP19qocFz{fill: #FFFFFF;}#el_uGHyDQKNAil{fill: #FFFFFF;}#el_tDInqopc2EE{fill: #FFFFFF;}#el_y52Co4Yf0ij{fill: #FFFFFF;}#el_6U7SmIJoYtI{fill: #FFFFFF;}#el_Doy9LW9iDqW{fill: #FFFFFF;}#el_Rlun8NY7mXx{fill: #FFFFFF;}#el_SdyEfIUZK3a{fill: #FFFFFF;}#el_OCWkAvdH2wE{fill: #FFFFFF;}#el_313-WBSChwM{fill: #FFFFFF;}#el_Lx1TKvW_6O9{fill: #FFFFFF;}#el_OftAcbTshKA{fill: #FFFFFF;}#el_33UEwYEivEc{fill: #FFFFFF;}#el_jVuudAjXkFW{fill: #FFFFFF;}#el_hrWZCyeY7ac{fill: #FFFFFF;}#el_qep5nRRzMCM{fill: #FFFFFF;}#el_FkwS84f1l3r{fill: #FFFFFF;}#el_noKXqrN8iUO{fill: #FFFFFF;}#el_2BIeDV-x2tl{fill: #FFFFFF;}#el_iWqsMLNmHz5{fill: #FFFFFF;}#el_ZcAKvLlIzeE{fill: #FFFFFF;}#el_oZXunlId7pL{fill: #FFFFFF;}#el_1jl779-YUIl{fill: #FFFFFF;}#el_BTZzlQcSzha{fill: #FFFFFF;}#el_UZYK7vCjLQs{fill: #FFFFFF;}#el_owV_vnLoYRJ{fill: #FFFFFF;}#el_8-dH9A1wHd-{fill: #FFFFFF;}#el_k0pk5OoRzxs{fill: #FFFFFF;}#el_rNRO60HG8xm{fill: #FFFFFF;}#el_ZYnz1tcc29T{fill: #FFFFFF;}#el_i6muSdF5LxO{fill: #FFFFFF;}#el_xaYDGeCoIFv{fill: #FFFFFF;}#el_yC3VCAriy6g{fill: #FFFFFF;}#el_stmLYZp-0Vs{fill: #FFFFFF;}#el_0E_XQIKWkz9{fill: #FFFFFF;}#el_L-fm0-bN8PA{fill: #FFFFFF;}#el_KiD0cMGQ3To{fill: #FFFFFF;}#el_yyXEb0XbpwJ{fill: #FFFFFF;}#el_nSRz0xpurZe{fill: #FFFFFF;}#el_YeSz-zmJ7bp{fill: #FFFFFF;}#el_S2-fBwZVjw5{fill: #FFFFFF;}#el_JACiibyiva5{fill: #FFFFFF;}#el_zQ-RS9ehxtw{fill: #FFFFFF;}#el_BTXgBUCSYWN{fill: #FFFFFF;}#el_6ZWDGybHudz{fill: #FFFFFF;}#el_T5bEe_OhLzt{fill: #FFFFFF;}#el_654IL5ciVSI{fill: #FFFFFF;}#el_bCG42Blmy__{fill: #FFFFFF;}#el_zpcsuAkuoxt{fill: #FFFFFF;}#el_lwMthG-sOdg{fill: #FFFFFF;}#el_ORh8n3laVaf{fill: #FFFFFF;}#el_EDn1JdyZbP_{fill: #FFFFFF;}#el_31mXCHSqowQ{fill: #FFFFFF;}#el_q7kWkMyXhMm{fill: #FFFFFF;}#el_8rJhu4p93qw{fill: #FFFFFF;}#el_3Qtl0B6V-wq{fill: #FFFFFF;}#el_4q410qI_C8h{fill: #FFFFFF;}#el_5gfP6T6i4ir{fill: #FFFFFF;}#el_U2nTaLKtZ35{fill: #FFFFFF;}#el_wZNYmgwpBlk{fill: #FFFFFF;}#el_ElVbnTpVHKI{fill: #FFFFFF;}#el_G7LCjPElq7_{fill: #FFFFFF;}#el_2NkPkuCK8cc{fill: #FFFFFF;}#el_tbcPDFS3PS5{fill: #FFFFFF;}#el_8eecesRyahQ{fill: #FFFFFF;}#el_djfA9Vf3rSg{fill: #FFFFFF;}#el_EG56SpBDiDL{fill: #FFFFFF;}#el_vCwftzzKpg8{fill: #FFFFFF;}#el_GjauvLIrDfs{fill: #FFFFFF;}#el_qzRk3MdwQa7{fill: #FFFFFF;}#el_ZJ937-FBXW_{fill: #FFFFFF;}#el_16uvwbAQ6Cy{fill: #FFFFFF;}#el_bg7oHAVQS-F{fill: #FFFFFF;}#el_cWGeWJNyIJw{fill: #FFFFFF;}#el_EznR1IxjoGl{fill: #FFFFFF;}#el_iaORrIuohs-{fill: #FFFFFF;}#el_UqfmS5OvMjC{fill: #FFFFFF;}#el_9ZRPfShz1Bt{fill: #FFFFFF;}#el_vjwEUgmuEZA{fill: #FFFFFF;}#el_HhM1LLZI_xz{fill: #FFFFFF;}#el_t29N-UoChZy{fill: #FFFFFF;}#el_ElryMLlBtZ4{fill: #FFFFFF;}#el_VTHQky3_AtC{fill: #FFFFFF;}#el_3I1fjn4AJYf{fill: #FFFFFF;}#el_wmzT-_ulYJL{fill: #FFFFFF;}#el_eOhBWcrQsLN{fill: #FFFFFF;}#el_sMYSTfbA52T{fill: #FFFFFF;}#el_N3-HzPytwG-{fill: #FFFFFF;}#el_b5Tl0JgjuPw{fill: #FFFFFF;}#el_Vyt8C7S-4vt{fill: #FFFFFF;}#el_L2_0FZqUyDh{fill: #FFFFFF;}#el_ug9MFF-tsk-{fill: #FFFFFF;}#el_cGp1uaLMPxq_an_TItASdkg4{-webkit-animation-fill-mode: none;animation-fill-mode: none;-webkit-transform: translate(592.300048828125px, 52.29999923706055px) translate(-592.300048828125px, -52.29999923706055px) translate(-400px, -200px);transform: translate(592.300048828125px, 52.29999923706055px) translate(-592.300048828125px, -52.29999923706055px) translate(-400px, -200px);-webkit-animation-name: kf_el_cGp1uaLMPxq_an_TItASdkg4;animation-name: kf_el_cGp1uaLMPxq_an_TItASdkg4;-webkit-animation-timing-function: cubic-bezier(0, 0, 1, 1);animation-timing-function: cubic-bezier(0, 0, 1, 1);}#el_IZI5iD7qGlQ{-webkit-animation-fill-mode: none;animation-fill-mode: none;-webkit-animation-name: kf_el_IZI5iD7qGlQ_an_1xbDr_lMZ;animation-name: kf_el_IZI5iD7qGlQ_an_1xbDr_lMZ;-webkit-animation-timing-function: cubic-bezier(0, 0, 1, 1);animation-timing-function: cubic-bezier(0, 0, 1, 1);opacity: 1;}#el_gw6hlZ05fMD_an_lMVMN3qSK{-webkit-animation-fill-mode: none;animation-fill-mode: none;-webkit-animation-name: kf_el_gw6hlZ05fMD_an_lMVMN3qSK;animation-name: kf_el_gw6hlZ05fMD_an_lMVMN3qSK;-webkit-animation-timing-function: cubic-bezier(0, 0, 1, 1);animation-timing-function: cubic-bezier(0, 0, 1, 1);-webkit-transform: translate(11px, 446.8999938964844px) rotate(2deg) translate(-11px, -446.8999938964844px);transform: translate(11px, 446.8999938964844px) rotate(2deg) translate(-11px, -446.8999938964844px);}</style>
<g id="el_HLvstqwiR4">
	<linearGradient id="SVGID_1_" gradientUnits="userSpaceOnUse" x1="355.8651" y1="450.5618" x2="481.1479" y2="23.172">
		<stop offset="0" style="stop-color:#F9CBDF"/>
		<stop offset="0.3978" style="stop-color:#EF5B99"/>
		<stop offset="0.7419" style="stop-color:#2B3990"/>
		<stop offset="1" style="stop-color:#1D1752"/>
	</linearGradient>
	<rect width="900" height="600" id="el_QtZuMQfkpt"/>
	<g id="el_Q-lv0_ePll">
		<linearGradient id="SVGID_2_" gradientUnits="userSpaceOnUse" x1="136.845" y1="345.0695" x2="136.845" y2="258.0146">
			<stop offset="0" style="stop-color:#1F1955"/>
			<stop offset="1" style="stop-color:#170F4A"/>
		</linearGradient>
		<path d="M161.4,354.5c-28.1-9-37.6-17.3-41.2-20.9c-3.6-3.6-14.8-9.9-17.9-8.4&#10;&#9;&#9;&#9;c-15.5,7.8-29.9,26.3-29.9,26.3s-9.6-1.2-28.1,14.9S0,398.3,0,398.3v67.7V600h273.7V411.2C273.7,411.2,189.5,363.5,161.4,354.5z" id="el_c8nKTgPM23"/>
		<linearGradient id="SVGID_3_" gradientUnits="userSpaceOnUse" x1="400" y1="439.5647" x2="400" y2="306.0102">
			<stop offset="0" style="stop-color:#1F1955"/>
			<stop offset="1" style="stop-color:#170F4A"/>
		</linearGradient>
		<path d="M0,429.8c0,0,78.4-26.9,102.3-40s53.2-36.4,65.1-40.6c11.9-4.2,49-16.3,62.7-24.6&#10;&#9;&#9;&#9;c13.7-8.3,51.4-9.5,60.3-9.5s22.7,0,22.7,0s20.9-14.3,33.4-19.1s42.4-20.3,46-20.3c3.6,0,11.3,14.3,11.3,14.3s9.6,6,12.5,10.2&#10;&#9;&#9;&#9;c3,4.2,8.4,15.5,11.3,19.7s59.7,26.9,143.3,38.8S800,384.4,800,384.4V600H0V429.8z" id="el_bSr_InoH43"/>
		<linearGradient id="SVGID_4_" gradientUnits="userSpaceOnUse" x1="533.5604" y1="538.5598" x2="533.5604" y2="395.8697">
			<stop offset="0" style="stop-color:#1F1955"/>
			<stop offset="1" style="stop-color:#170F4A"/>
		</linearGradient>
		<path d="M267.1,392.1c0,0,96.7-21.5,121.8-28.1c25.1-6.6,38.8-17.3,50.8-22.1s87.8-39.4,93.8-41.2&#10;&#9;&#9;&#9;s19.7,18.5,19.7,18.5s64.5,26.3,78.8,32.8c14.3,6.6,49.6,8.4,55.5,6.6s11.9-23.3,17.3-28.1s13.1-13.1,15.5-13.1s10.2,5.4,10.2,5.4&#10;&#9;&#9;&#9;s17.9-24.5,25.1-33.4c7.2-9,44.4-36.4,44.4-36.4v347H267.1V392.1z" id="el_PeJar6ExJo"/>
		<linearGradient id="SVGID_5_" gradientUnits="userSpaceOnUse" x1="400" y1="538.5598" x2="400" y2="412.5571">
			<stop offset="0" style="stop-color:#170F4A"/>
			<stop offset="1" style="stop-color:#120742"/>
		</linearGradient>
		<path d="M0,443.9c0,0,245.1-73.4,292.1-72S650.9,493.2,800,493.2V600H0V443.9z" id="el_Vk-PzIJwI9"/>
		<g id="el_S08MSUVdyf">
			<linearGradient id="SVGID_6_" gradientUnits="userSpaceOnUse" x1="400" y1="565.5584" x2="400" y2="466.5634">
				<stop offset="0" style="stop-color:#120742"/>
				<stop offset="1" style="stop-color:#080037"/>
			</linearGradient>
			<path d="M0,516.3c0,0,187.3-26.2,277.3-56.5s98.1-25.9,166.6-32.1c68.5-6.2,181.4-45.2,209.6-47.2&#10;&#9;&#9;&#9;&#9;c28.2-2,146.5-8.7,146.5-8.7V600H0V516.3z" id="el_0C8BebtymE"/>
			<linearGradient id="SVGID_7_" gradientUnits="userSpaceOnUse" x1="557.5524" y1="565.5584" x2="557.5524" y2="466.5634">
				<stop offset="0" style="stop-color:#120742"/>
				<stop offset="1" style="stop-color:#080037"/>
			</linearGradient>
			<polygon points="560.6,400.2 560.5,400.2 559.6,399.4 560.4,399.4 559.2,391.7 558.3,390.8 559.1,390.8 &#10;&#9;&#9;&#9;&#9;557.4,380.5 555.1,395.8 555.9,395.8 555,396.7 553.1,409.5 562,409.5 &#9;&#9;&#9;" id="el_ofRXz0CmBJ"/>
			<linearGradient id="SVGID_8_" gradientUnits="userSpaceOnUse" x1="574.0578" y1="565.5584" x2="574.0578" y2="466.5634">
				<stop offset="0" style="stop-color:#120742"/>
				<stop offset="1" style="stop-color:#080037"/>
			</linearGradient>
			<polygon points="576.3,389.3 575.4,388.5 576.1,388.5 573.9,374.7 572.8,382 573.6,382 572.7,382.8 &#10;&#9;&#9;&#9;&#9;572.7,382.8 571.3,391.7 572.1,391.7 571.2,392.5 569.6,403.4 578.5,403.4 &#9;&#9;&#9;" id="el_-ARbXu3xpQ"/>
			<linearGradient id="SVGID_9_" gradientUnits="userSpaceOnUse" x1="624.522" y1="565.5584" x2="624.522" y2="466.5634">
				<stop offset="0" style="stop-color:#120742"/>
				<stop offset="1" style="stop-color:#080037"/>
			</linearGradient>
			<polygon points="626.7,377.4 625.9,376.6 626.6,376.6 624.4,362.7 623.3,370.1 624,370.1 623.2,370.9 &#10;&#9;&#9;&#9;&#9;623.2,370.9 621.8,379.8 622.6,379.8 621.7,380.6 620.1,391.5 629,391.5 &#9;&#9;&#9;" id="el_XI9sSAP20Q"/>
			<linearGradient id="SVGID_10_" gradientUnits="userSpaceOnUse" x1="676.4793" y1="565.5584" x2="676.4793" y2="466.5634">
				<stop offset="0" style="stop-color:#120742"/>
				<stop offset="1" style="stop-color:#080037"/>
			</linearGradient>
			<polygon points="678.7,368.7 677.8,367.9 678.6,367.9 676.3,354.1 675.2,361.4 676,361.4 675.1,362.2 &#10;&#9;&#9;&#9;&#9;675.1,362.2 673.8,371.1 674.5,371.1 673.6,371.9 672,382.8 680.9,382.8 &#9;&#9;&#9;" id="el_W2HO70-D-i"/>
			<linearGradient id="SVGID_11_" gradientUnits="userSpaceOnUse" x1="690.5138" y1="565.5584" x2="690.5138" y2="466.5634">
				<stop offset="0" style="stop-color:#120742"/>
				<stop offset="1" style="stop-color:#080037"/>
			</linearGradient>
			<polygon points="692.7,368.7 691.9,367.9 692.6,367.9 690.4,354.1 689.3,361.4 690,361.4 689.2,362.2 &#10;&#9;&#9;&#9;&#9;689.1,362.2 687.8,371.1 688.5,371.1 687.7,371.9 686,382.8 695,382.8 &#9;&#9;&#9;" id="el_i3WQ_ShlYA"/>
			<linearGradient id="SVGID_12_" gradientUnits="userSpaceOnUse" x1="730.5269" y1="565.5584" x2="730.5269" y2="466.5634">
				<stop offset="0" style="stop-color:#120742"/>
				<stop offset="1" style="stop-color:#080037"/>
			</linearGradient>
			<polygon points="732.7,365.1 731.9,364.3 732.6,364.3 730.4,350.5 729.3,357.8 730,357.8 729.2,358.6 &#10;&#9;&#9;&#9;&#9;729.2,358.6 727.8,367.6 728.6,367.6 727.7,368.4 726.1,379.2 735,379.2 &#9;&#9;&#9;" id="el_vP2Wcqhulh"/>
			<linearGradient id="SVGID_13_" gradientUnits="userSpaceOnUse" x1="525.3851" y1="565.5584" x2="525.3851" y2="466.5634">
				<stop offset="0" style="stop-color:#120742"/>
				<stop offset="1" style="stop-color:#080037"/>
			</linearGradient>
			<polygon points="527.6,403.1 526.7,402.3 527.5,402.3 525.2,388.5 524.1,395.8 524.9,395.8 524,396.6 &#10;&#9;&#9;&#9;&#9;524,396.6 522.7,405.6 523.4,405.6 522.6,406.4 520.9,417.2 529.8,417.2 &#9;&#9;&#9;" id="el_7pAxE6EhqLl"/>
			<linearGradient id="SVGID_14_" gradientUnits="userSpaceOnUse" x1="514.0381" y1="565.5584" x2="514.0381" y2="466.5634">
				<stop offset="0" style="stop-color:#120742"/>
				<stop offset="1" style="stop-color:#080037"/>
			</linearGradient>
			<polygon points="516.2,406.1 515.4,405.3 516.1,405.3 513.9,391.5 512.8,398.8 513.5,398.8 512.7,399.6 &#10;&#9;&#9;&#9;&#9;512.7,399.6 511.3,408.5 512.1,408.5 511.2,409.3 509.6,420.2 518.5,420.2 &#9;&#9;&#9;" id="el_nuWA65uM4Fz"/>
			<linearGradient id="SVGID_15_" gradientUnits="userSpaceOnUse" x1="479.6986" y1="565.5584" x2="479.6986" y2="466.5634">
				<stop offset="0" style="stop-color:#120742"/>
				<stop offset="1" style="stop-color:#080037"/>
			</linearGradient>
			<polygon points="481.9,412.7 481.1,411.9 481.8,411.9 479.6,398 478.4,405.4 479.2,405.4 478.3,406.2 &#10;&#9;&#9;&#9;&#9;478.3,406.2 477,415.1 477.7,415.1 476.9,415.9 475.2,426.8 484.2,426.8 &#9;&#9;&#9;" id="el_4RdtSCjdeG4"/>
		</g>
		<linearGradient id="SVGID_16_" gradientUnits="userSpaceOnUse" x1="483.0472" y1="334.8532" x2="516.0456" y2="360.3519">
			<stop offset="0" style="stop-color:#120742"/>
			<stop offset="1" style="stop-color:#080037"/>
		</linearGradient>
		<path d="M509.6,337.8c0.2,7.2,2,15.1,2,16.3c0,1.2-5.8,12.9-7.2,17.8s-2.7,10.2-4,17.2&#10;&#9;&#9;&#9;c-1.3,7-8.1,28.2-8.1,28.2s22-39.5,26.2-45.4c4.2-5.9,9.5-22.4,11.3-25.6c1.8-3.1,9.5-8.1,13-12.5c3.6-4.5,10.3-14.5,10.3-14.5&#10;&#9;&#9;&#9;s-13.7-20.3-19.7-18.5C529.4,302.3,509.4,330.6,509.6,337.8z" id="el_b0DfUCm8wK9"/>
		<g id="el_DWOcz7S_l6u">
			<g id="el_gw6hlZ05fMD_an_lMVMN3qSK" data-animator-group="true" data-animator-type="1"><g id="el_gw6hlZ05fMD">
				<linearGradient id="SVGID_17_" gradientUnits="userSpaceOnUse" x1="20.522" y1="490.5622" x2="20.522" y2="657.0538">
					<stop offset="0" style="stop-color:#000025"/>
					<stop offset="1" style="stop-color:#080037"/>
				</linearGradient>
				<polygon points="25.2,494.3 23.4,492.6 24.9,492.6 20.2,463.1 17.9,478.7 19.5,478.7 17.6,480.5 &#10;&#9;&#9;&#9;&#9;&#9;17.6,480.4 14.7,499.5 16.3,499.5 14.5,501.2 11,524.3 30,524.3 &#9;&#9;&#9;&#9;" id="el_zVIHBAs1BYc"/>
				<linearGradient id="SVGID_18_" gradientUnits="userSpaceOnUse" x1="62.522" y1="490.5622" x2="62.522" y2="657.0538">
					<stop offset="0" style="stop-color:#000025"/>
					<stop offset="1" style="stop-color:#080037"/>
				</linearGradient>
				<polygon points="67.2,490.3 65.4,488.6 66.9,488.6 62.2,459.1 59.9,474.7 61.5,474.7 59.6,476.5 &#10;&#9;&#9;&#9;&#9;&#9;59.6,476.4 56.7,495.5 58.3,495.5 56.5,497.2 53,520.3 72,520.3 &#9;&#9;&#9;&#9;" id="el_N3oUu1oag9F"/>
				<linearGradient id="SVGID_19_" gradientUnits="userSpaceOnUse" x1="85.4894" y1="490.5622" x2="85.4894" y2="657.0538">
					<stop offset="0" style="stop-color:#000025"/>
					<stop offset="1" style="stop-color:#080037"/>
				</linearGradient>
				<polygon points="90.2,490.3 88.4,488.6 89.9,488.6 85.2,459.1 82.8,474.7 84.4,474.7 82.6,476.5 &#10;&#9;&#9;&#9;&#9;&#9;82.6,476.4 79.7,495.5 81.3,495.5 79.5,497.2 76,520.3 95,520.3 &#9;&#9;&#9;&#9;" id="el_z_jYIjxyeuw"/>
				<linearGradient id="SVGID_20_" gradientUnits="userSpaceOnUse" x1="150.1561" y1="490.5622" x2="150.1561" y2="657.0538">
					<stop offset="0" style="stop-color:#000025"/>
					<stop offset="1" style="stop-color:#080037"/>
				</linearGradient>
				<polygon points="154.8,486.5 153,484.8 154.6,484.8 149.8,455.3 147.5,471 149.1,471 147.3,472.7 &#10;&#9;&#9;&#9;&#9;&#9;147.2,472.7 144.4,491.7 146,491.7 144.1,493.4 140.6,516.6 159.7,516.6 &#9;&#9;&#9;&#9;" id="el_rzYc4dxALLK"/>
				<linearGradient id="SVGID_21_" gradientUnits="userSpaceOnUse" x1="174.8228" y1="490.5622" x2="174.8228" y2="657.0538">
					<stop offset="0" style="stop-color:#000025"/>
					<stop offset="1" style="stop-color:#080037"/>
				</linearGradient>
				<polygon points="179.5,482.7 177.7,481.1 179.2,481.1 174.5,451.5 172.2,467.2 173.8,467.2 171.9,468.9 &#10;&#9;&#9;&#9;&#9;&#9;171.9,468.9 169,487.9 170.6,487.9 168.8,489.6 165.3,512.8 184.3,512.8 &#9;&#9;&#9;&#9;" id="el_rZZpcTJn2LP"/>
				<linearGradient id="SVGID_22_" gradientUnits="userSpaceOnUse" x1="231.4894" y1="490.5622" x2="231.4894" y2="657.0538">
					<stop offset="0" style="stop-color:#000025"/>
					<stop offset="1" style="stop-color:#080037"/>
				</linearGradient>
				<polygon points="236.2,478.1 234.4,476.4 235.9,476.4 231.2,446.9 228.8,462.5 230.4,462.5 228.6,464.3 &#10;&#9;&#9;&#9;&#9;&#9;228.6,464.2 225.7,483.3 227.3,483.3 225.5,485 222,508.1 241,508.1 &#9;&#9;&#9;&#9;" id="el_HPGvsh_Z5xt"/>
				<linearGradient id="SVGID_23_" gradientUnits="userSpaceOnUse" x1="345.4894" y1="490.5622" x2="345.4894" y2="657.0538">
					<stop offset="0" style="stop-color:#000025"/>
					<stop offset="1" style="stop-color:#080037"/>
				</linearGradient>
				<polygon points="350.2,478.1 348.4,476.4 349.9,476.4 345.2,446.9 342.8,462.5 344.4,462.5 342.6,464.3 &#10;&#9;&#9;&#9;&#9;&#9;342.6,464.2 339.7,483.3 341.3,483.3 339.5,485 336,508.1 355,508.1 &#9;&#9;&#9;&#9;" id="el_rKDLaBxeIQ7"/>
				<linearGradient id="SVGID_24_" gradientUnits="userSpaceOnUse" x1="361.4894" y1="490.5622" x2="361.4894" y2="657.0538">
					<stop offset="0" style="stop-color:#000025"/>
					<stop offset="1" style="stop-color:#080037"/>
				</linearGradient>
				<polygon points="366.2,480.9 364.4,479.2 365.9,479.2 361.2,449.7 358.8,465.4 360.4,465.4 358.6,467.1 &#10;&#9;&#9;&#9;&#9;&#9;358.6,467.1 355.7,486.1 357.3,486.1 355.5,487.8 352,511 371,511 &#9;&#9;&#9;&#9;" id="el_82ah-WJchmB"/>
				<linearGradient id="SVGID_25_" gradientUnits="userSpaceOnUse" x1="465.7184" y1="490.5622" x2="465.7184" y2="657.0538">
					<stop offset="0" style="stop-color:#000025"/>
					<stop offset="1" style="stop-color:#080037"/>
				</linearGradient>
				<polygon points="470.4,490.3 468.6,488.6 470.1,488.6 465.4,459.1 463.1,474.7 464.7,474.7 462.8,476.5 &#10;&#9;&#9;&#9;&#9;&#9;462.8,476.4 459.9,495.5 461.5,495.5 459.7,497.2 456.2,520.3 475.2,520.3 &#9;&#9;&#9;&#9;" id="el_DVkH5LaUgtg"/>
				<linearGradient id="SVGID_26_" gradientUnits="userSpaceOnUse" x1="484.1624" y1="490.5622" x2="484.1624" y2="657.0538">
					<stop offset="0" style="stop-color:#000025"/>
					<stop offset="1" style="stop-color:#080037"/>
				</linearGradient>
				<polygon points="487.9,496.1 486.5,494.8 487.7,494.8 483.9,471 482,483.6 483.3,483.6 481.8,485 &#10;&#9;&#9;&#9;&#9;&#9;481.8,485 479.5,500.3 480.8,500.3 479.3,501.7 476.5,520.3 491.8,520.3 &#9;&#9;&#9;&#9;" id="el_SPDArUhWai_"/>
				<linearGradient id="SVGID_27_" gradientUnits="userSpaceOnUse" x1="553.0552" y1="490.5622" x2="553.0552" y2="657.0538">
					<stop offset="0" style="stop-color:#000025"/>
					<stop offset="1" style="stop-color:#080037"/>
				</linearGradient>
				<polygon points="556.8,502.2 555.4,500.9 556.6,500.9 552.8,477.1 550.9,489.7 552.2,489.7 550.7,491.1 &#10;&#9;&#9;&#9;&#9;&#9;550.7,491.1 548.4,506.4 549.7,506.4 548.2,507.8 545.4,526.4 560.7,526.4 &#9;&#9;&#9;&#9;" id="el_VyMDGnbQd13"/>
			</g></g>
			<linearGradient id="SVGID_28_" gradientUnits="userSpaceOnUse" x1="400" y1="490.5622" x2="400" y2="657.0538">
				<stop offset="0" style="stop-color:#000025"/>
				<stop offset="1" style="stop-color:#080037"/>
			</linearGradient>
			<path d="M0,517.2c0,0,245.1-24,292.1-23.5s358.8,39.6,507.9,39.6V600H0V517.2z" id="el_nBhaeQtv2Qb"/>
		</g>
	</g>
	
		<linearGradient id="SVGID_29_" gradientUnits="userSpaceOnUse" x1="766.0602" y1="170.4989" x2="585.6169" y2="59.0148" gradientTransform="matrix(0.9559 0.2938 -0.2938 0.9559 51.6895 -175.9658)">
		<stop offset="0" style="stop-color:#FFFFFF"/>
		<stop offset="1" style="stop-color:#1D1752;stop-opacity:0"/>
	</linearGradient>
	<g id="el_cGp1uaLMPxq_an_TItASdkg4" data-animator-group="true" data-animator-type="0"><path d="M592.4,52.3c0,0,34.7,38.4,69.5,76.8c8.7,9.6,17.4,19.2,25.5,28.2c4,4.5,8,8.9,11.6,13.1&#10;&#9;&#9;c3.7,4.2,7.2,8.1,10.4,11.8c3.2,3.7,6.1,7,8.7,10c2.6,3,4.8,5.6,6.7,7.7c3.7,4.3,5.8,6.8,5.8,6.8l-0.1,0.1c0,0-2.2-2.4-6.1-6.5&#10;&#9;&#9;c-1.9-2.1-4.3-4.6-6.9-7.5c-2.7-2.9-5.7-6.2-9-9.8c-3.3-3.6-6.8-7.5-10.6-11.6c-3.8-4.1-7.7-8.5-11.7-13&#10;&#9;&#9;c-8.1-9.1-16.6-18.8-25.2-28.5c-34.3-38.8-68.7-77.5-68.7-77.5L592.4,52.3z" id="el_cGp1uaLMPxq"/></g>
	<g id="el_IZI5iD7qGlQ">
		<g id="el_fgpiMSXKP4i">
			<path d="M30.3,193.1c1.3,0,1.3-2,0-2C29,191.1,29,193.1,30.3,193.1L30.3,193.1z" id="el_Xn3twFaPKdp"/>
		</g>
		<g id="el_X8rcRDTnS0u">
			<path d="M99.3,238.1c1.3,0,1.3-2,0-2S98,238.1,99.3,238.1L99.3,238.1z" id="el_021gZnjYQky"/>
		</g>
		<g id="el_jQWO0dnYRxh">
			<path d="M189.3,236.6c1.3,0,1.3-2,0-2C188,234.6,188,236.6,189.3,236.6L189.3,236.6z" id="el_AsSoA6EUf7Q"/>
		</g>
		<g id="el_Uub3C0ZNQko">
			<path d="M141.3,208.1c1.3,0,1.3-2,0-2S140,208.1,141.3,208.1L141.3,208.1z" id="el_Qjtq6wA2VW0"/>
		</g>
		<g id="el_mREqFqJhIAQ">
			<path d="M292.8,169.1c1.3,0,1.3-2,0-2S291.5,169.1,292.8,169.1L292.8,169.1z" id="el_kkEgkVeyJGS"/>
		</g>
		<g id="el_bDKqnBJZ92_">
			<path d="M345.3,191.6c1.3,0,1.3-2,0-2S344,191.6,345.3,191.6L345.3,191.6z" id="el_edITAOubeyJ"/>
		</g>
		<g id="el_wRvZBKputZs">
			<path d="M492.2,163.1c1.3,0,1.3-2,0-2S491,163.1,492.2,163.1L492.2,163.1z" id="el__BhP19qocFz"/>
		</g>
		<g id="el_Jr1OphoQf8h">
			<path d="M418.7,142.1c1.3,0,1.3-2,0-2S417.5,142.1,418.7,142.1L418.7,142.1z" id="el_uGHyDQKNAil"/>
		</g>
		<g id="el_H7Nyti68dCa">
			<path d="M535.7,116.6c1.3,0,1.3-2,0-2S534.5,116.6,535.7,116.6L535.7,116.6z" id="el_tDInqopc2EE"/>
		</g>
		<g id="el_g-BYW1gOV26">
			<path d="M568.7,142.1c1.3,0,1.3-2,0-2S567.5,142.1,568.7,142.1L568.7,142.1z" id="el_y52Co4Yf0ij"/>
		</g>
		<g id="el_zDY45yvDVhV">
			<path d="M426.2,200.6c1.3,0,1.3-2,0-2S425,200.6,426.2,200.6L426.2,200.6z" id="el_6U7SmIJoYtI"/>
		</g>
		<g id="el_mJ2ldwb8LA2">
			<path d="M526.7,230.6c1.3,0,1.3-2,0-2S525.5,230.6,526.7,230.6L526.7,230.6z" id="el_Doy9LW9iDqW"/>
		</g>
		<g id="el_u_PsPOEpHkL">
			<path d="M639.2,212.6c1.3,0,1.3-2,0-2S637.9,212.6,639.2,212.6L639.2,212.6z" id="el_Rlun8NY7mXx"/>
		</g>
		<g id="el_FEufpF4Xy8r">
			<path d="M604.7,187.6c1.9,0,1.9-3,0-3C602.8,184.6,602.8,187.6,604.7,187.6L604.7,187.6z" id="el_SdyEfIUZK3a"/>
		</g>
		<g id="el_OJRXxi190GQ">
			<path d="M754.7,130.6c1.9,0,1.9-3,0-3C752.8,127.6,752.8,130.6,754.7,130.6L754.7,130.6z" id="el_OCWkAvdH2wE"/>
		</g>
		<g id="el_M-HV-GlNnhM">
			<path d="M789.2,163.1c1.3,0,1.3-2,0-2S787.9,163.1,789.2,163.1L789.2,163.1z" id="el_313-WBSChwM"/>
		</g>
		<g id="el_X6bATtrIZyP">
			<path d="M702.2,160.1c1.3,0,1.3-2,0-2S700.9,160.1,702.2,160.1L702.2,160.1z" id="el_Lx1TKvW_6O9"/>
		</g>
		<g id="el_xlCQ6uoUzls">
			<path d="M780.2,52.1c1.3,0,1.3-2,0-2C778.9,50.1,778.9,52.1,780.2,52.1L780.2,52.1z" id="el_OftAcbTshKA"/>
		</g>
		<g id="el_JqAMMpcjp6U">
			<path d="M745.7,92.1c2.6,0,2.6-4,0-4S743.2,92.1,745.7,92.1L745.7,92.1z" id="el_33UEwYEivEc"/>
		</g>
		<g id="el_hMn0vMcO_D0">
			<path d="M615.2,113.6c1.3,0,1.3-2,0-2S613.9,113.6,615.2,113.6L615.2,113.6z" id="el_jVuudAjXkFW"/>
		</g>
		<g id="el_fWp6J5mXyQY">
			<path d="M532.7,85.1c1.3,0,1.3-2,0-2S531.5,85.1,532.7,85.1L532.7,85.1z" id="el_hrWZCyeY7ac"/>
		</g>
		<g id="el_JnMf4oTjTl_">
			<path d="M468.2,101.6c1.3,0,1.3-2,0-2S467,101.6,468.2,101.6L468.2,101.6z" id="el_qep5nRRzMCM"/>
		</g>
		<g id="el_c_a6TP_x3uC">
			<path d="M459.2,96.1c1.9,0,1.9-3,0-3S457.3,96.1,459.2,96.1L459.2,96.1z" id="el_FkwS84f1l3r"/>
		</g>
		<g id="el_tGMrVpxXpmN">
			<path d="M444.2,109.1c1.3,0,1.3-2,0-2C443,107.1,443,109.1,444.2,109.1L444.2,109.1z" id="el_noKXqrN8iUO"/>
		</g>
		<g id="el_13hUiDSEylu">
			<path d="M390.3,125.6c1.3,0,1.3-2,0-2S389,125.6,390.3,125.6L390.3,125.6z" id="el_2BIeDV-x2tl"/>
		</g>
		<g id="el_bxPTDGTm62p">
			<path d="M337.8,109.1c1.3,0,1.3-2,0-2S336.5,109.1,337.8,109.1L337.8,109.1z" id="el_iWqsMLNmHz5"/>
		</g>
		<g id="el_DksEYMZ5RHI">
			<path d="M310.8,133.6c3.9,0,3.9-6,0-6S306.9,133.6,310.8,133.6L310.8,133.6z" id="el_ZcAKvLlIzeE"/>
		</g>
		<g id="el_1LK0Kpiibem">
			<path d="M364.8,157.1c1.3,0,1.3-2,0-2S363.5,157.1,364.8,157.1L364.8,157.1z" id="el_oZXunlId7pL"/>
		</g>
		<g id="el_D6heXfvg81_">
			<path d="M324.3,160.1c1.3,0,1.3-2,0-2S323,160.1,324.3,160.1L324.3,160.1z" id="el_1jl779-YUIl"/>
		</g>
		<g id="el_pEeUIdazi8A">
			<path d="M264.3,139.1c1.3,0,1.3-2,0-2S263,139.1,264.3,139.1L264.3,139.1z" id="el_BTZzlQcSzha"/>
		</g>
		<g id="el_K9kIxrrQUp3">
			<path d="M244.8,104.6c1.3,0,1.3-2,0-2S243.5,104.6,244.8,104.6L244.8,104.6z" id="el_UZYK7vCjLQs"/>
		</g>
		<g id="el_a4L69sidGKA">
			<path d="M186.3,169.1c1.3,0,1.3-2,0-2C185,167.1,185,169.1,186.3,169.1L186.3,169.1z" id="el_owV_vnLoYRJ"/>
		</g>
		<g id="el_lpnba_832c1">
			<path d="M249.3,194.6c1.3,0,1.3-2,0-2S248,194.6,249.3,194.6L249.3,194.6z" id="el_8-dH9A1wHd-"/>
		</g>
		<g id="el_GhSOZNgLASo">
			<path d="M207.3,203.6c1.3,0,1.3-2,0-2C206,201.6,206,203.6,207.3,203.6L207.3,203.6z" id="el_k0pk5OoRzxs"/>
		</g>
		<g id="el_zDsHNQv-XLY">
			<path d="M174.3,152.6c1.3,0,1.3-2,0-2S173,152.6,174.3,152.6L174.3,152.6z" id="el_rNRO60HG8xm"/>
		</g>
		<g id="el__0s2aOPLqz6">
			<path d="M114.3,146.6c1.3,0,1.3-2,0-2C113,144.6,113,146.6,114.3,146.6L114.3,146.6z" id="el_ZYnz1tcc29T"/>
		</g>
		<g id="el_L__PsfLInOe">
			<path d="M222.3,143.6c1.3,0,1.3-2,0-2C221,141.6,221,143.6,222.3,143.6L222.3,143.6z" id="el_i6muSdF5LxO"/>
		</g>
		<g id="el_GpJjBP7xZx6">
			<path d="M160.8,111.1c1.9,0,1.9-3,0-3S158.8,111.1,160.8,111.1L160.8,111.1z" id="el_xaYDGeCoIFv"/>
		</g>
		<g id="el_WVWpqnxki-y">
			<path d="M78.3,118.1c1.3,0,1.3-2,0-2C77,116.1,77,118.1,78.3,118.1L78.3,118.1z" id="el_yC3VCAriy6g"/>
		</g>
		<g id="el_QjafZoA0a-C">
			<path d="M76.8,158.6c1.3,0,1.3-2,0-2C75.5,156.6,75.5,158.6,76.8,158.6L76.8,158.6z" id="el_stmLYZp-0Vs"/>
		</g>
		<g id="el_W6ViFdgPhbo">
			<path d="M99.3,163.1c1.3,0,1.3-2,0-2S98,163.1,99.3,163.1L99.3,163.1z" id="el_0E_XQIKWkz9"/>
		</g>
		<g id="el_Enep662CNa0">
			<path d="M31.8,112.1c1.3,0,1.3-2,0-2S30.5,112.1,31.8,112.1L31.8,112.1z" id="el_L-fm0-bN8PA"/>
		</g>
		<g id="el_CdPa-7KUGhW">
			<path d="M9.3,121.1c1.3,0,1.3-2,0-2S8,121.1,9.3,121.1L9.3,121.1z" id="el_KiD0cMGQ3To"/>
		</g>
		<g id="el_BQBeIQ6HRV-">
			<path d="M15.3,77.6c1.3,0,1.3-2,0-2S14,77.6,15.3,77.6L15.3,77.6z" id="el_yyXEb0XbpwJ"/>
		</g>
		<g id="el_UczmNtq4-tx">
			<path d="M121.8,104.6c1.3,0,1.3-2,0-2C120.5,102.6,120.5,104.6,121.8,104.6L121.8,104.6z" id="el_nSRz0xpurZe"/>
		</g>
		<g id="el_bt-4Wk-Ujzq">
			<path d="M207.3,82.1c1.3,0,1.3-2,0-2C206,80.1,206,82.1,207.3,82.1L207.3,82.1z" id="el_YeSz-zmJ7bp"/>
		</g>
		<g id="el_GLctZNqJRpq">
			<path d="M286.8,94.1c1.3,0,1.3-2,0-2C285.5,92.1,285.5,94.1,286.8,94.1L286.8,94.1z" id="el_S2-fBwZVjw5"/>
		</g>
		<g id="el_YkVc_gXzeS5">
			<path d="M367.8,92.6c1.3,0,1.3-2,0-2S366.5,92.6,367.8,92.6L367.8,92.6z" id="el_JACiibyiva5"/>
		</g>
		<g id="el_DHA5JVX2xoB">
			<path d="M382.8,86.6c1.3,0,1.3-2,0-2S381.5,86.6,382.8,86.6L382.8,86.6z" id="el_zQ-RS9ehxtw"/>
		</g>
		<g id="el_XH-bueoXWxw">
			<path d="M420.2,101.6c1.3,0,1.3-2,0-2S419,101.6,420.2,101.6L420.2,101.6z" id="el_BTXgBUCSYWN"/>
		</g>
		<g id="el_0SJPGXis1Qu">
			<path d="M495.2,73.1c1.3,0,1.3-2,0-2S494,73.1,495.2,73.1L495.2,73.1z" id="el_6ZWDGybHudz"/>
		</g>
		<g id="el_Ho3Riia37xK">
			<path d="M564.2,95.6c1.3,0,1.3-2,0-2S563,95.6,564.2,95.6L564.2,95.6z" id="el_T5bEe_OhLzt"/>
		</g>
		<g id="el_gmM2oU5AnfM">
			<path d="M633.2,74.6c1.3,0,1.3-2,0-2S631.9,74.6,633.2,74.6L633.2,74.6z" id="el_654IL5ciVSI"/>
		</g>
		<g id="el_qd9uC8I6biu">
			<path d="M682.7,103.1c1.3,0,1.3-2,0-2S681.4,103.1,682.7,103.1L682.7,103.1z" id="el_bCG42Blmy__"/>
		</g>
		<g id="el_MWyEqL5LA7P">
			<path d="M762.2,103.1c1.3,0,1.3-2,0-2S760.9,103.1,762.2,103.1L762.2,103.1z" id="el_zpcsuAkuoxt"/>
		</g>
		<g id="el_Bw-qDypNtXL">
			<path d="M768.2,121.1c1.3,0,1.3-2,0-2S766.9,121.1,768.2,121.1L768.2,121.1z" id="el_lwMthG-sOdg"/>
		</g>
		<g id="el_lxJZdETXinB">
			<path d="M556.7,184.1c1.3,0,1.3-2,0-2S555.5,184.1,556.7,184.1L556.7,184.1z" id="el_ORh8n3laVaf"/>
		</g>
		<g id="el_tizpt2MjcgC">
			<path d="M441.2,161.6c1.3,0,1.3-2,0-2S440,161.6,441.2,161.6L441.2,161.6z" id="el_EDn1JdyZbP_"/>
		</g>
		<g id="el_CTc4NvKW3JU">
			<path d="M640.7,151.1c1.3,0,1.3-2,0-2S639.4,151.1,640.7,151.1L640.7,151.1z" id="el_31mXCHSqowQ"/>
		</g>
		<g id="el_CNbVOJlTbbN">
			<path d="M736.7,169.1c1.3,0,1.3-2,0-2S735.4,169.1,736.7,169.1L736.7,169.1z" id="el_q7kWkMyXhMm"/>
		</g>
		<g id="el_zP90_YfnomJ">
			<path d="M780.2,187.1c1.3,0,1.3-2,0-2C778.9,185.1,778.9,187.1,780.2,187.1L780.2,187.1z" id="el_8rJhu4p93qw"/>
		</g>
		<g id="el_aP6EhKF1o3y">
			<path d="M69.3,205.6c1.9,0,1.9-3,0-3C67.3,202.6,67.3,205.6,69.3,205.6L69.3,205.6z" id="el_3Qtl0B6V-wq"/>
		</g>
		<g id="el_5lMVaOfEuwa">
			<path d="M7.8,223.1c1.3,0,1.3-2,0-2S6.5,223.1,7.8,223.1L7.8,223.1z" id="el_4q410qI_C8h"/>
		</g>
		<g id="el_dlEPhkIOLDl">
			<path d="M33.3,161.6c1.3,0,1.3-2,0-2C32,159.6,32,161.6,33.3,161.6L33.3,161.6z" id="el_5gfP6T6i4ir"/>
		</g>
		<g id="el_y--bN7b8QoQ">
			<path d="M84.3,74.6c1.3,0,1.3-2,0-2C83,72.6,83,74.6,84.3,74.6L84.3,74.6z" id="el_U2nTaLKtZ35"/>
		</g>
		<g id="el_xTtFagkh5GB">
			<path d="M99.3,23.6c1.3,0,1.3-2,0-2S98,23.6,99.3,23.6L99.3,23.6z" id="el_wZNYmgwpBlk"/>
		</g>
		<g id="el_7liE_vSPBan">
			<path d="M49.8,35.6c1.3,0,1.3-2,0-2C48.5,33.6,48.5,35.6,49.8,35.6L49.8,35.6z" id="el_ElVbnTpVHKI"/>
		</g>
		<g id="el_bxMyNr-8mVA">
			<path d="M27.3,4.1c1.3,0,1.3-2,0-2S26,4.1,27.3,4.1L27.3,4.1z" id="el_G7LCjPElq7_"/>
		</g>
		<g id="el_qJU5Revb3g3">
			<path d="M180.3,10.1c1.3,0,1.3-2,0-2S179,10.1,180.3,10.1L180.3,10.1z" id="el_2NkPkuCK8cc"/>
		</g>
		<g id="el_lzifEzqs0Q0">
			<path d="M132.3,53.1c2.6,0,2.6-4,0-4C129.7,49.1,129.7,53.1,132.3,53.1L132.3,53.1z" id="el_tbcPDFS3PS5"/>
		</g>
		<g id="el_wE5lV3IY_AO">
			<path d="M150.3,55.1c1.3,0,1.3-2,0-2C149,53.1,149,55.1,150.3,55.1L150.3,55.1z" id="el_8eecesRyahQ"/>
		</g>
		<g id="el_kLBd0yb3opG">
			<path d="M172.8,79.1c1.3,0,1.3-2,0-2C171.5,77.1,171.5,79.1,172.8,79.1L172.8,79.1z" id="el_djfA9Vf3rSg"/>
		</g>
		<g id="el_q-y_IDk_pso">
			<path d="M243.3,41.6c1.3,0,1.3-2,0-2C242,39.6,242,41.6,243.3,41.6L243.3,41.6z" id="el_EG56SpBDiDL"/>
		</g>
		<g id="el_Qlcd67YiOmE">
			<path d="M201.3,41.6c1.3,0,1.3-2,0-2S200,41.6,201.3,41.6L201.3,41.6z" id="el_vCwftzzKpg8"/>
		</g>
		<g id="el_6dt-tdEbi84">
			<path d="M292.8,17.6c1.3,0,1.3-2,0-2S291.5,17.6,292.8,17.6L292.8,17.6z" id="el_GjauvLIrDfs"/>
		</g>
		<g id="el_ms9-Dq5Rilg">
			<path d="M306.3,50.6c1.3,0,1.3-2,0-2S305,50.6,306.3,50.6L306.3,50.6z" id="el_qzRk3MdwQa7"/>
		</g>
		<g id="el_lqH7Ptv0am2">
			<path d="M358.8,65.6c1.3,0,1.3-2,0-2S357.5,65.6,358.8,65.6L358.8,65.6z" id="el_ZJ937-FBXW_"/>
		</g>
		<g id="el_co59Qu1moj-">
			<path d="M345.3,52.1c1.3,0,1.3-2,0-2S344,52.1,345.3,52.1L345.3,52.1z" id="el_16uvwbAQ6Cy"/>
		</g>
		<g id="el_8KfPakJCV78">
			<path d="M418.7,19.1c1.3,0,1.3-2,0-2S417.5,19.1,418.7,19.1L418.7,19.1z" id="el_bg7oHAVQS-F"/>
		</g>
		<g id="el_HjWbWeVQUVg">
			<path d="M397.8,41.6c1.3,0,1.3-2,0-2S396.5,41.6,397.8,41.6L397.8,41.6z" id="el_cWGeWJNyIJw"/>
		</g>
		<g id="el_-ngZGrq0Chs">
			<path d="M472.7,43.1c1.3,0,1.3-2,0-2S471.5,43.1,472.7,43.1L472.7,43.1z" id="el_EznR1IxjoGl"/>
		</g>
		<g id="el_HAinAb19j8A">
			<path d="M438.2,58.1c1.3,0,1.3-2,0-2S437,58.1,438.2,58.1L438.2,58.1z" id="el_iaORrIuohs-"/>
		</g>
		<g id="el_kBqjX4dhXoS">
			<path d="M358.8,19.1c1.3,0,1.3-2,0-2S357.5,19.1,358.8,19.1L358.8,19.1z" id="el_UqfmS5OvMjC"/>
		</g>
		<g id="el_w2bAVzEX14C">
			<path d="M468.2,5.6c1.3,0,1.3-2,0-2S467,5.6,468.2,5.6L468.2,5.6z" id="el_9ZRPfShz1Bt"/>
		</g>
		<g id="el_skFuO50RYQ3">
			<path d="M465.2,16.1c1.3,0,1.3-2,0-2S464,16.1,465.2,16.1L465.2,16.1z" id="el_vjwEUgmuEZA"/>
		</g>
		<g id="el_6ZILYNwipW9">
			<path d="M516.2,40.1c1.3,0,1.3-2,0-2S515,40.1,516.2,40.1L516.2,40.1z" id="el_HhM1LLZI_xz"/>
		</g>
		<g id="el_5CxY5m1HAaK">
			<path d="M589.7,10.1c1.3,0,1.3-2,0-2S588.5,10.1,589.7,10.1L589.7,10.1z" id="el_t29N-UoChZy"/>
		</g>
		<g id="el_sMUaEdnbijc">
			<path d="M558.2,35.6c1.3,0,1.3-2,0-2S557,35.6,558.2,35.6L558.2,35.6z" id="el_ElryMLlBtZ4"/>
		</g>
		<g id="el_H_ykf6EW_gC">
			<path d="M642.2,41.6c1.3,0,1.3-2,0-2S640.9,41.6,642.2,41.6L642.2,41.6z" id="el_VTHQky3_AtC"/>
		</g>
		<g id="el_gBaNzQFFvsJ">
			<path d="M744.2,11.6c1.3,0,1.3-2,0-2S742.9,11.6,744.2,11.6L744.2,11.6z" id="el_3I1fjn4AJYf"/>
		</g>
		<g id="el_rsfuXxTvZaa">
			<path d="M699.2,37.1c1.3,0,1.3-2,0-2S697.9,37.1,699.2,37.1L699.2,37.1z" id="el_wmzT-_ulYJL"/>
		</g>
		<g id="el_EsJBTMgwYJr">
			<path d="M696.2,53.6c1.3,0,1.3-2,0-2S694.9,53.6,696.2,53.6L696.2,53.6z" id="el_eOhBWcrQsLN"/>
		</g>
		<g id="el_NOYes9580X7">
			<path d="M745.7,50.6c1.3,0,1.3-2,0-2S744.4,50.6,745.7,50.6L745.7,50.6z" id="el_sMYSTfbA52T"/>
		</g>
		<g id="el_hRLO10_CfLZ">
			<path d="M793.7,10.1c1.3,0,1.3-2,0-2S792.4,10.1,793.7,10.1L793.7,10.1z" id="el_N3-HzPytwG-"/>
		</g>
		<g id="el_2QvoOtbC4fL">
			<path d="M792.2,91.1c1.3,0,1.3-2,0-2S790.9,91.1,792.2,91.1L792.2,91.1z" id="el_b5Tl0JgjuPw"/>
		</g>
		<g id="el_GlYe2G9lQTt">
			<path d="M39.3,83.6c1.3,0,1.3-2,0-2C38,81.6,38,83.6,39.3,83.6L39.3,83.6z" id="el_Vyt8C7S-4vt"/>
		</g>
		<g id="el_jc8WgoDOKNr">
			<path d="M6.3,43.1c1.3,0,1.3-2,0-2S5,43.1,6.3,43.1L6.3,43.1z" id="el_L2_0FZqUyDh"/>
		</g>
		<g id="el_Wrc8R9bVb-R">
			<path d="M643.7,10.6c1.9,0,1.9-3,0-3C641.8,7.6,641.8,10.6,643.7,10.6L643.7,10.6z" id="el_ug9MFF-tsk-"/>
		</g>
	</g>
</g>
</svg>